<?xml version="1.0" encoding="utf-8"?>
<!-- Generator: Adobe Illustrator 22.1.0, SVG Export Plug-In . SVG Version: 6.00 Build 0)  -->
<svg version="1.1" id="Layer_1" xmlns="http://www.w3.org/2000/svg" xmlns:xlink="http://www.w3.org/1999/xlink" x="0px" y="0px"
	 viewBox="0 0 501 140" style="enable-background:new 0 0 501 140;" xml:space="preserve">
<style type="text/css">
	.st0{fill:#FFFFFF;}
	.st1{fill:#0E3A5D;}
</style>
<g>
	<g>
		<path class="st1" d="M43.8,67.1c-10.9,0-16.3-7.5-16.3-22.5c0-16.1,5.1-24.1,15.2-24.1c4.3,0,7.7,1.2,10.3,3.6
			c2.6,2.4,4,5.7,4.4,10h25.7C82,22.7,77.6,14.1,70,8.4c-7.1-5.4-16.6-8-28.3-8c-12.4,0-22.4,4.2-30,12.5
			c-7.4,8-11.1,18.3-11.1,30.8c0,13.5,3.9,24.2,11.7,31.9c7.8,7.8,18.5,11.6,32.1,11.6c10.9,0,19.9-3,27-9
			c7.1-6,11.2-14.4,12.4-25.2h-26C56.5,62.4,51.9,67.1,43.8,67.1z"/>
		<rect x="85.6" y="0.4" class="st1" width="23.8" height="17"/>
		<path class="st1" d="M190.4,25l-10.4,37l-10.5-37h-18.7h-5.3h-6.2V6.3h-23.5V25h-6.3h-2.5H85.6v60.1h23.8V38.8h6v25.1
			c0,10.2,2,16.3,5.8,18.5c3.3,1.8,13,2.8,29.2,2.8V68h-3.8c-3.1,0-5.1-0.5-6-1.4c-1-1-1.4-3-1.4-6V38.8h11.2l14.8,40.9
			c0.7,1.9,1,3.4,1,4.5c0,3.1-2.6,4.5-7.8,4.4h-4.9v16.5c7.6,0.3,11.2,0.5,10.5,0.5c10,0,16.9-1.8,20.6-5.3c2.8-2.6,5.9-9,9.4-19.1
			L213.3,25H190.4z"/>
		<path class="st1" d="M495.2,61.9c0.8-5.4-1.5-9.4-7.1-12.1c-1.8-0.9-7.1-2.4-15.8-4.5c-5.5-1.4-8-3-7.3-5c0.9-2.8,3.6-4.2,8.2-4.2
			c4,0,5.7,1.9,5.1,5.8h21.5c0.1-0.5,0.3-1.1,0.4-2c1.8-11.1-6.2-16.7-23.7-16.7c-7.7,0-14.5,1.4-20.4,4.2c-1.9,0.9-3.6,1.9-5.2,3
			l3.6-5.5h-22.4l-21.7,36.8l3.2-36.8h-20L372,61.6l3.2-36.8h-23.1l0,12.6c-0.9-2.7-2.2-5-4-7c-4.5-4.9-11.3-7.3-20.3-7.3
			c-9.7,0-18.7,3-27.1,8.9c-4.3,3-7.9,6.4-10.7,10.1l13.2-39.6h-25.7l-8.6,26l-5.2,18.6L249.3,2.5h-25L197,84.3h25.7l8.6-25.9
			l5.2-18.6l14.4,44.5h25.1l5.5-16.6c0.3,5.2,2.3,9.3,6,12.4c4.5,3.9,11,5.9,19.4,5.9c8,0,15.4-1.5,22.1-4.5
			c7.6-3.4,13.4-8.4,17.5-15.1h-22.6c-2.9,3.5-6.4,5.2-10.6,5.2c-2.9,0-5.1-0.9-6.7-2.6c-1.6-1.7-2.2-4-1.7-6.9
			c0.1-0.5,0.3-1.2,0.6-2.3h45.1c0.7-1.9,1.2-3.7,1.6-5.4L352,84.3h23.1l20.1-34.9l-2.4,34.9h23.1l25.3-38.9
			c-0.1,0.3-0.1,0.6-0.2,0.9c-0.8,5.4,1.4,9.4,6.9,11.9c1.5,0.7,6.6,2.1,15.4,4.2c5.2,1.3,7.5,3.1,6.8,5.3c-1.2,3.6-4.3,5.3-9.4,5.3
			c-4.7,0-6.7-1.9-6.1-5.7c0.1-0.7,0.2-1.2,0.2-1.6h-22.4c-0.2,0.6-0.3,1.4-0.5,2.5c-1.9,11.8,6,17.7,23.6,17.7
			c8.7,0,16.3-1.4,22.8-4.2c8.3-3.5,13.7-9,16.2-16.6C494.7,64.4,495,63.3,495.2,61.9z M331.3,46.3c-0.1,0.7-0.2,1.2-0.4,1.6h-21.5
			c2.2-6.9,7-10.3,14.5-10.3c2.4,0,4.4,0.9,5.8,2.6C331.2,41.8,331.7,43.8,331.3,46.3z"/>
	</g>
	<g>
		<path class="st1" d="M182,130.3l13.2-35.8l29.1,0l-3.1,8.4l-17.4,0l-1.9,5.1l14.7,0l-3,8.4l-14.7,0l-2.1,5.6l18.1,0l-3.1,8.4
			L182,130.3z"/>
		<path class="st1" d="M221.2,104.2l10.3,0l-1.5,16.5l10.6-16.5l9.9,0l-18.4,26.1l-11.5,0L221.2,104.2z"/>
		<path class="st1" d="M254.6,119.6c-1.1,3.1,0.5,5.1,3.2,5.1c1.6,0,3.4-0.7,4.7-2.3l9.9,0c-2.1,3.2-5,5.4-8.1,6.7
			c-3.1,1.3-6.5,1.9-9.5,1.9c-8.3,0-13-4.8-9.8-13.5c3.2-8.6,11.6-14,19.9-14c9.6,0,13,6.7,9.4,16.1L254.6,119.6z M265.9,114.4
			c0.9-2.4-0.5-4.5-2.9-4.5c-3.1,0-5.5,1.7-6.5,4.5L265.9,114.4z"/>
		<path class="st1" d="M282.4,104.3l9.4,0l-1.9,5.3h0.1c2.9-4.1,6.2-6,10.2-6c0.4,0,0.9,0.1,1.3,0.2l-3.8,10.3
			c-0.7-0.1-1.3-0.3-2-0.3c-4.2,0-7.1,2-9.2,7.6l-3.3,9l-10.3,0L282.4,104.3z"/>
		<path class="st1" d="M311,120.4l10.4-16.1l9.9,0l-17.3,24.3c-5.7,8.1-7.7,10.6-16.9,10.6c-1.9,0-3.7-0.2-4.5-0.2l2.7-7.2
			c0.7,0,1.4,0.1,2.1,0.1c3.2,0,4.3-0.9,4.3-3.8l0.2-23.7l10.4,0L311,120.4z"/>
		<path class="st1" d="M356.1,120.5L356.1,120.5l10-16.1l9.8,0L358,130.5l-10.1,0l1.6-15.3h-0.1l-9.2,15.3l-10.1,0l1-26.1l10.1,0
			l-2,16.1h0.1l9.9-16.1l8.7,0L356.1,120.5z"/>
		<path class="st1" d="M380.9,94.7l10.3,0l-4.8,13c3-2.6,5.9-4,9.4-4c6.9,0,8.6,4,5.9,11.2l-5.7,15.6l-10.3,0l5.1-13.8
			c0.9-2.6,1.1-4.9-1.8-4.9c-3.2,0-4.8,2-6,5.4l-4.9,13.3l-10.3,0L380.9,94.7z"/>
		<path class="st1" d="M412.3,119.8c-1.1,3.1,0.5,5.1,3.2,5.1c1.6,0,3.4-0.7,4.7-2.3l9.9,0c-2.1,3.2-5,5.4-8.1,6.7
			c-3.1,1.3-6.5,1.9-9.5,1.9c-8.3,0-13-4.8-9.8-13.5c3.2-8.6,11.6-14,19.9-14c9.6,0,13,6.7,9.4,16.1L412.3,119.8z M423.6,114.6
			c0.9-2.4-0.5-4.5-2.9-4.5c-3.1,0-5.5,1.7-6.5,4.5L423.6,114.6z"/>
		<path class="st1" d="M439.8,104.5l9.4,0l-1.9,5.3h0.1c2.9-4.1,6.2-6,10.2-6c0.4,0,0.9,0.1,1.3,0.2l-3.8,10.3
			c-0.7-0.1-1.3-0.3-2-0.3c-4.2,0-7.1,2-9.2,7.6l-3.3,9l-10.3,0L439.8,104.5z"/>
		<path class="st1" d="M464.9,119.9c-1.1,3.1,0.5,5.1,3.2,5.1c1.6,0,3.4-0.7,4.7-2.3l9.9,0c-2.1,3.2-5,5.4-8.1,6.7
			c-3.1,1.3-6.5,1.9-9.5,1.9c-8.3,0-13-4.8-9.8-13.5c3.2-8.6,11.6-14,19.9-14c9.6,0,13,6.7,9.4,16.1L464.9,119.9z M476.2,114.6
			c0.9-2.4-0.5-4.5-2.9-4.5c-3.1,0-5.5,1.7-6.5,4.5L476.2,114.6z"/>
	</g>
</g>
</svg>
