<?xml version="1.0" standalone="no"?>
<!DOCTYPE svg PUBLIC "-//W3C//DTD SVG 20010904//EN"
 "http://www.w3.org/TR/2001/REC-SVG-20010904/DTD/svg10.dtd">
<svg version="1.0" xmlns="http://www.w3.org/2000/svg"
 width="267.000000pt" height="267.000000pt" viewBox="0 0 267.000000 267.000000"
 preserveAspectRatio="xMidYMid meet">
<metadata>
Created by potrace 1.11, written by Peter Selinger 2001-2013
</metadata>
<g transform="translate(0.000000,267.000000) scale(0.100000,-0.100000)"
fill="#000000" stroke="none">
<path d="M1735 1995 c-50 -27 -74 -56 -95 -113 -24 -63 -24 -140 0 -153 8 -4
58 -28 110 -53 52 -24 119 -63 149 -85 71 -53 101 -54 148 -3 72 76 99 174 70
245 -47 112 -287 213 -382 162z"/>
<path d="M752 1981 c-75 -26 -159 -87 -187 -136 -47 -79 -25 -178 58 -267 47
-51 77 -50 147 3 30 23 103 66 162 95 122 61 129 71 109 159 -14 62 -58 128
-100 150 -40 20 -124 19 -189 -4z"/>
<path d="M898 1430 c-50 -27 -83 -88 -113 -205 -33 -131 -33 -207 0 -240 27
-28 39 -29 105 -14 61 14 95 42 200 165 72 84 90 112 90 137 0 42 -35 91 -97
134 -66 45 -130 53 -185 23z"/>
<path d="M1623 1429 c-23 -11 -62 -42 -87 -69 -71 -76 -68 -94 49 -229 113
-130 158 -161 237 -161 74 0 88 16 88 101 0 80 -33 217 -68 282 -30 56 -90 97
-143 97 -19 0 -53 -9 -76 -21z"/>
<path d="M1223 918 c-17 -6 -47 -23 -65 -38 -29 -24 -31 -29 -19 -44 19 -22
57 -42 101 -51 19 -4 42 -13 50 -20 33 -29 64 -28 95 5 22 23 37 30 67 30 44
0 81 30 76 63 -6 40 -62 61 -173 64 -55 1 -114 -3 -132 -9z"/>
</g>
</svg>
